<mxfile host="app.diagrams.net" modified="2024-03-07T23:17:45.933Z" agent="Mozilla/5.0 (X11; Linux x86_64) AppleWebKit/537.36 (KHTML, like Gecko) Chrome/108.0.0.0 Safari/537.36" etag="8fm7oSVmPzcPxr9bJnW_" version="24.0.2" type="device">
  <diagram name="Página-1" id="mjPWsBamsysOiz7qGhm0">
    <mxGraphModel dx="2467" dy="1380" grid="1" gridSize="10" guides="1" tooltips="1" connect="1" arrows="1" fold="1" page="1" pageScale="1" pageWidth="827" pageHeight="1169" math="0" shadow="0">
      <root>
        <mxCell id="0" />
        <mxCell id="1" parent="0" />
        <mxCell id="SJDUsyotow9IORxO9fCn-8" style="edgeStyle=orthogonalEdgeStyle;rounded=0;orthogonalLoop=1;jettySize=auto;html=1;exitX=0.5;exitY=0;exitDx=0;exitDy=0;entryX=1;entryY=1;entryDx=0;entryDy=0;" edge="1" parent="1" source="SJDUsyotow9IORxO9fCn-1" target="SJDUsyotow9IORxO9fCn-2">
          <mxGeometry relative="1" as="geometry" />
        </mxCell>
        <mxCell id="SJDUsyotow9IORxO9fCn-9" style="edgeStyle=orthogonalEdgeStyle;rounded=0;orthogonalLoop=1;jettySize=auto;html=1;exitX=0.75;exitY=0;exitDx=0;exitDy=0;" edge="1" parent="1" source="SJDUsyotow9IORxO9fCn-1" target="SJDUsyotow9IORxO9fCn-3">
          <mxGeometry relative="1" as="geometry" />
        </mxCell>
        <mxCell id="SJDUsyotow9IORxO9fCn-10" style="edgeStyle=orthogonalEdgeStyle;rounded=0;orthogonalLoop=1;jettySize=auto;html=1;exitX=1;exitY=0;exitDx=0;exitDy=0;" edge="1" parent="1" source="SJDUsyotow9IORxO9fCn-1" target="SJDUsyotow9IORxO9fCn-7">
          <mxGeometry relative="1" as="geometry" />
        </mxCell>
        <mxCell id="SJDUsyotow9IORxO9fCn-11" style="edgeStyle=orthogonalEdgeStyle;rounded=0;orthogonalLoop=1;jettySize=auto;html=1;exitX=1;exitY=0.5;exitDx=0;exitDy=0;" edge="1" parent="1" source="SJDUsyotow9IORxO9fCn-1" target="SJDUsyotow9IORxO9fCn-6">
          <mxGeometry relative="1" as="geometry" />
        </mxCell>
        <mxCell id="SJDUsyotow9IORxO9fCn-12" style="edgeStyle=orthogonalEdgeStyle;rounded=0;orthogonalLoop=1;jettySize=auto;html=1;exitX=0;exitY=0.25;exitDx=0;exitDy=0;" edge="1" parent="1" source="SJDUsyotow9IORxO9fCn-1" target="SJDUsyotow9IORxO9fCn-4">
          <mxGeometry relative="1" as="geometry" />
        </mxCell>
        <mxCell id="SJDUsyotow9IORxO9fCn-13" style="edgeStyle=orthogonalEdgeStyle;rounded=0;orthogonalLoop=1;jettySize=auto;html=1;exitX=0;exitY=1;exitDx=0;exitDy=0;" edge="1" parent="1" source="SJDUsyotow9IORxO9fCn-1" target="SJDUsyotow9IORxO9fCn-5">
          <mxGeometry relative="1" as="geometry">
            <Array as="points">
              <mxPoint x="-40" y="340" />
            </Array>
          </mxGeometry>
        </mxCell>
        <mxCell id="SJDUsyotow9IORxO9fCn-32" style="edgeStyle=orthogonalEdgeStyle;rounded=0;orthogonalLoop=1;jettySize=auto;html=1;exitX=1;exitY=1;exitDx=0;exitDy=0;" edge="1" parent="1" source="SJDUsyotow9IORxO9fCn-1" target="SJDUsyotow9IORxO9fCn-31">
          <mxGeometry relative="1" as="geometry" />
        </mxCell>
        <mxCell id="SJDUsyotow9IORxO9fCn-1" value="Veiculo" style="rounded=0;whiteSpace=wrap;html=1;" vertex="1" parent="1">
          <mxGeometry x="-40" y="290" width="120" height="60" as="geometry" />
        </mxCell>
        <mxCell id="SJDUsyotow9IORxO9fCn-2" value="Chassi" style="ellipse;whiteSpace=wrap;html=1;" vertex="1" parent="1">
          <mxGeometry x="-130" y="170" width="120" height="80" as="geometry" />
        </mxCell>
        <mxCell id="SJDUsyotow9IORxO9fCn-3" value="Numero da Placa" style="ellipse;whiteSpace=wrap;html=1;" vertex="1" parent="1">
          <mxGeometry x="20" y="160" width="120" height="80" as="geometry" />
        </mxCell>
        <mxCell id="SJDUsyotow9IORxO9fCn-4" value="Cor" style="ellipse;whiteSpace=wrap;html=1;" vertex="1" parent="1">
          <mxGeometry x="-270" y="220" width="120" height="80" as="geometry" />
        </mxCell>
        <mxCell id="SJDUsyotow9IORxO9fCn-5" value="Ano de fabricação" style="ellipse;whiteSpace=wrap;html=1;" vertex="1" parent="1">
          <mxGeometry x="-320" y="300" width="120" height="80" as="geometry" />
        </mxCell>
        <mxCell id="SJDUsyotow9IORxO9fCn-6" value="Quilometragem" style="ellipse;whiteSpace=wrap;html=1;" vertex="1" parent="1">
          <mxGeometry x="240" y="280" width="120" height="80" as="geometry" />
        </mxCell>
        <mxCell id="SJDUsyotow9IORxO9fCn-7" value="Preço" style="ellipse;whiteSpace=wrap;html=1;" vertex="1" parent="1">
          <mxGeometry x="180" y="180" width="120" height="80" as="geometry" />
        </mxCell>
        <mxCell id="SJDUsyotow9IORxO9fCn-15" value="Ano" style="ellipse;whiteSpace=wrap;html=1;" vertex="1" parent="1">
          <mxGeometry x="-150" y="600" width="100" height="60" as="geometry" />
        </mxCell>
        <mxCell id="SJDUsyotow9IORxO9fCn-20" style="edgeStyle=orthogonalEdgeStyle;rounded=0;orthogonalLoop=1;jettySize=auto;html=1;exitX=0;exitY=0.5;exitDx=0;exitDy=0;" edge="1" parent="1" source="SJDUsyotow9IORxO9fCn-16" target="SJDUsyotow9IORxO9fCn-15">
          <mxGeometry relative="1" as="geometry" />
        </mxCell>
        <mxCell id="SJDUsyotow9IORxO9fCn-30" style="edgeStyle=orthogonalEdgeStyle;rounded=0;orthogonalLoop=1;jettySize=auto;html=1;exitX=1;exitY=0.5;exitDx=0;exitDy=0;" edge="1" parent="1" source="SJDUsyotow9IORxO9fCn-16" target="SJDUsyotow9IORxO9fCn-29">
          <mxGeometry relative="1" as="geometry" />
        </mxCell>
        <mxCell id="SJDUsyotow9IORxO9fCn-16" value="Modelo" style="rounded=0;whiteSpace=wrap;html=1;" vertex="1" parent="1">
          <mxGeometry x="-40" y="525" width="120" height="60" as="geometry" />
        </mxCell>
        <mxCell id="SJDUsyotow9IORxO9fCn-17" value="Tem" style="rhombus;whiteSpace=wrap;html=1;" vertex="1" parent="1">
          <mxGeometry x="-20" y="410" width="80" height="80" as="geometry" />
        </mxCell>
        <mxCell id="SJDUsyotow9IORxO9fCn-18" value="" style="endArrow=none;html=1;rounded=0;exitX=0.5;exitY=1;exitDx=0;exitDy=0;entryX=0.5;entryY=0;entryDx=0;entryDy=0;" edge="1" parent="1" source="SJDUsyotow9IORxO9fCn-1" target="SJDUsyotow9IORxO9fCn-17">
          <mxGeometry width="50" height="50" relative="1" as="geometry">
            <mxPoint y="350" as="sourcePoint" />
            <mxPoint x="50" y="300" as="targetPoint" />
          </mxGeometry>
        </mxCell>
        <mxCell id="SJDUsyotow9IORxO9fCn-21" value="0,N" style="edgeLabel;html=1;align=center;verticalAlign=middle;resizable=0;points=[];" vertex="1" connectable="0" parent="SJDUsyotow9IORxO9fCn-18">
          <mxGeometry x="-0.0333" y="1" relative="1" as="geometry">
            <mxPoint as="offset" />
          </mxGeometry>
        </mxCell>
        <mxCell id="SJDUsyotow9IORxO9fCn-19" value="" style="endArrow=none;html=1;rounded=0;exitX=0.5;exitY=1;exitDx=0;exitDy=0;" edge="1" parent="1" source="SJDUsyotow9IORxO9fCn-17" target="SJDUsyotow9IORxO9fCn-16">
          <mxGeometry width="50" height="50" relative="1" as="geometry">
            <mxPoint x="120" y="480" as="sourcePoint" />
            <mxPoint x="140" y="450" as="targetPoint" />
          </mxGeometry>
        </mxCell>
        <mxCell id="SJDUsyotow9IORxO9fCn-22" value="1,1" style="edgeLabel;html=1;align=center;verticalAlign=middle;resizable=0;points=[];" vertex="1" connectable="0" parent="SJDUsyotow9IORxO9fCn-19">
          <mxGeometry x="-0.3143" relative="1" as="geometry">
            <mxPoint as="offset" />
          </mxGeometry>
        </mxCell>
        <mxCell id="SJDUsyotow9IORxO9fCn-23" value="Tem" style="rhombus;whiteSpace=wrap;html=1;" vertex="1" parent="1">
          <mxGeometry x="-20" y="660" width="80" height="80" as="geometry" />
        </mxCell>
        <mxCell id="SJDUsyotow9IORxO9fCn-24" value="" style="endArrow=none;html=1;rounded=0;exitX=0.5;exitY=0;exitDx=0;exitDy=0;entryX=0.5;entryY=1;entryDx=0;entryDy=0;" edge="1" parent="1" source="SJDUsyotow9IORxO9fCn-23" target="SJDUsyotow9IORxO9fCn-16">
          <mxGeometry width="50" height="50" relative="1" as="geometry">
            <mxPoint y="610" as="sourcePoint" />
            <mxPoint x="20" y="590" as="targetPoint" />
          </mxGeometry>
        </mxCell>
        <mxCell id="SJDUsyotow9IORxO9fCn-38" value="1,N" style="edgeLabel;html=1;align=center;verticalAlign=middle;resizable=0;points=[];" vertex="1" connectable="0" parent="SJDUsyotow9IORxO9fCn-24">
          <mxGeometry x="-0.3067" y="-4" relative="1" as="geometry">
            <mxPoint x="8" as="offset" />
          </mxGeometry>
        </mxCell>
        <mxCell id="SJDUsyotow9IORxO9fCn-33" style="edgeStyle=orthogonalEdgeStyle;rounded=0;orthogonalLoop=1;jettySize=auto;html=1;exitX=0;exitY=0.5;exitDx=0;exitDy=0;entryX=1;entryY=0.5;entryDx=0;entryDy=0;" edge="1" parent="1" source="SJDUsyotow9IORxO9fCn-25" target="SJDUsyotow9IORxO9fCn-28">
          <mxGeometry relative="1" as="geometry" />
        </mxCell>
        <mxCell id="SJDUsyotow9IORxO9fCn-36" style="edgeStyle=orthogonalEdgeStyle;rounded=0;orthogonalLoop=1;jettySize=auto;html=1;exitX=0.5;exitY=1;exitDx=0;exitDy=0;entryX=0.5;entryY=0;entryDx=0;entryDy=0;" edge="1" parent="1" source="SJDUsyotow9IORxO9fCn-25" target="SJDUsyotow9IORxO9fCn-34">
          <mxGeometry relative="1" as="geometry" />
        </mxCell>
        <mxCell id="SJDUsyotow9IORxO9fCn-37" style="edgeStyle=orthogonalEdgeStyle;rounded=0;orthogonalLoop=1;jettySize=auto;html=1;exitX=1;exitY=0.5;exitDx=0;exitDy=0;entryX=0;entryY=0.5;entryDx=0;entryDy=0;" edge="1" parent="1" source="SJDUsyotow9IORxO9fCn-25" target="SJDUsyotow9IORxO9fCn-35">
          <mxGeometry relative="1" as="geometry" />
        </mxCell>
        <mxCell id="SJDUsyotow9IORxO9fCn-25" value="Marca" style="rounded=0;whiteSpace=wrap;html=1;" vertex="1" parent="1">
          <mxGeometry x="-40" y="830" width="120" height="60" as="geometry" />
        </mxCell>
        <mxCell id="SJDUsyotow9IORxO9fCn-26" value="" style="endArrow=none;html=1;rounded=0;exitX=0.5;exitY=1;exitDx=0;exitDy=0;entryX=0.5;entryY=0;entryDx=0;entryDy=0;" edge="1" parent="1" source="SJDUsyotow9IORxO9fCn-23" target="SJDUsyotow9IORxO9fCn-25">
          <mxGeometry width="50" height="50" relative="1" as="geometry">
            <mxPoint y="770" as="sourcePoint" />
            <mxPoint x="50" y="720" as="targetPoint" />
          </mxGeometry>
        </mxCell>
        <mxCell id="SJDUsyotow9IORxO9fCn-39" value="1,1" style="edgeLabel;html=1;align=center;verticalAlign=middle;resizable=0;points=[];" vertex="1" connectable="0" parent="SJDUsyotow9IORxO9fCn-26">
          <mxGeometry x="-0.0222" y="5" relative="1" as="geometry">
            <mxPoint as="offset" />
          </mxGeometry>
        </mxCell>
        <mxCell id="SJDUsyotow9IORxO9fCn-28" value="&lt;u&gt;ID&lt;/u&gt;" style="ellipse;whiteSpace=wrap;html=1;" vertex="1" parent="1">
          <mxGeometry x="-230" y="830" width="100" height="60" as="geometry" />
        </mxCell>
        <mxCell id="SJDUsyotow9IORxO9fCn-29" value="&lt;u&gt;ID&lt;/u&gt;" style="ellipse;whiteSpace=wrap;html=1;" vertex="1" parent="1">
          <mxGeometry x="150" y="515" width="120" height="80" as="geometry" />
        </mxCell>
        <mxCell id="SJDUsyotow9IORxO9fCn-31" value="&lt;u&gt;ID&lt;/u&gt;" style="ellipse;whiteSpace=wrap;html=1;" vertex="1" parent="1">
          <mxGeometry x="200" y="400" width="100" height="50" as="geometry" />
        </mxCell>
        <mxCell id="SJDUsyotow9IORxO9fCn-34" value="Nome" style="ellipse;whiteSpace=wrap;html=1;" vertex="1" parent="1">
          <mxGeometry x="-40" y="940" width="120" height="80" as="geometry" />
        </mxCell>
        <mxCell id="SJDUsyotow9IORxO9fCn-35" value="Ano de Fundação" style="ellipse;whiteSpace=wrap;html=1;" vertex="1" parent="1">
          <mxGeometry x="140" y="820" width="120" height="80" as="geometry" />
        </mxCell>
        <mxCell id="SJDUsyotow9IORxO9fCn-50" style="edgeStyle=orthogonalEdgeStyle;rounded=0;orthogonalLoop=1;jettySize=auto;html=1;exitX=0.5;exitY=0;exitDx=0;exitDy=0;entryX=0.5;entryY=1;entryDx=0;entryDy=0;" edge="1" parent="1" source="SJDUsyotow9IORxO9fCn-40" target="SJDUsyotow9IORxO9fCn-49">
          <mxGeometry relative="1" as="geometry" />
        </mxCell>
        <mxCell id="SJDUsyotow9IORxO9fCn-52" style="edgeStyle=orthogonalEdgeStyle;rounded=0;orthogonalLoop=1;jettySize=auto;html=1;exitX=0;exitY=0.5;exitDx=0;exitDy=0;entryX=1;entryY=0.5;entryDx=0;entryDy=0;" edge="1" parent="1" source="SJDUsyotow9IORxO9fCn-40" target="SJDUsyotow9IORxO9fCn-51">
          <mxGeometry relative="1" as="geometry" />
        </mxCell>
        <mxCell id="SJDUsyotow9IORxO9fCn-40" value="Cliente" style="rounded=0;whiteSpace=wrap;html=1;" vertex="1" parent="1">
          <mxGeometry x="-510" y="415" width="100" height="50" as="geometry" />
        </mxCell>
        <mxCell id="SJDUsyotow9IORxO9fCn-41" value="Comprar" style="rhombus;whiteSpace=wrap;html=1;" vertex="1" parent="1">
          <mxGeometry x="-230" y="400" width="80" height="80" as="geometry" />
        </mxCell>
        <mxCell id="SJDUsyotow9IORxO9fCn-43" value="" style="endArrow=none;html=1;rounded=0;entryX=0;entryY=1;entryDx=0;entryDy=0;exitX=1;exitY=0.5;exitDx=0;exitDy=0;" edge="1" parent="1" source="SJDUsyotow9IORxO9fCn-41" target="SJDUsyotow9IORxO9fCn-1">
          <mxGeometry width="50" height="50" relative="1" as="geometry">
            <mxPoint x="-90" y="510" as="sourcePoint" />
            <mxPoint x="-40" y="460" as="targetPoint" />
          </mxGeometry>
        </mxCell>
        <mxCell id="SJDUsyotow9IORxO9fCn-47" value="1,N" style="edgeLabel;html=1;align=center;verticalAlign=middle;resizable=0;points=[];" vertex="1" connectable="0" parent="SJDUsyotow9IORxO9fCn-43">
          <mxGeometry x="0.0109" y="-1" relative="1" as="geometry">
            <mxPoint as="offset" />
          </mxGeometry>
        </mxCell>
        <mxCell id="SJDUsyotow9IORxO9fCn-44" value="" style="endArrow=none;html=1;rounded=0;entryX=0;entryY=0.5;entryDx=0;entryDy=0;exitX=1;exitY=0.5;exitDx=0;exitDy=0;" edge="1" parent="1" source="SJDUsyotow9IORxO9fCn-40" target="SJDUsyotow9IORxO9fCn-41">
          <mxGeometry width="50" height="50" relative="1" as="geometry">
            <mxPoint x="-260" y="440" as="sourcePoint" />
            <mxPoint x="-40" y="460" as="targetPoint" />
          </mxGeometry>
        </mxCell>
        <mxCell id="SJDUsyotow9IORxO9fCn-48" value="1,1" style="edgeLabel;html=1;align=center;verticalAlign=middle;resizable=0;points=[];" vertex="1" connectable="0" parent="SJDUsyotow9IORxO9fCn-44">
          <mxGeometry x="0.3556" y="2" relative="1" as="geometry">
            <mxPoint as="offset" />
          </mxGeometry>
        </mxCell>
        <mxCell id="SJDUsyotow9IORxO9fCn-45" value="Data de Compra" style="ellipse;whiteSpace=wrap;html=1;" vertex="1" parent="1">
          <mxGeometry x="-225" y="515" width="70" height="50" as="geometry" />
        </mxCell>
        <mxCell id="SJDUsyotow9IORxO9fCn-46" value="" style="endArrow=classic;html=1;rounded=0;exitX=0.5;exitY=1;exitDx=0;exitDy=0;entryX=0.5;entryY=0;entryDx=0;entryDy=0;" edge="1" parent="1" source="SJDUsyotow9IORxO9fCn-41" target="SJDUsyotow9IORxO9fCn-45">
          <mxGeometry width="50" height="50" relative="1" as="geometry">
            <mxPoint x="-90" y="510" as="sourcePoint" />
            <mxPoint x="-40" y="460" as="targetPoint" />
          </mxGeometry>
        </mxCell>
        <mxCell id="SJDUsyotow9IORxO9fCn-49" value="&lt;u&gt;ID&lt;/u&gt;" style="ellipse;whiteSpace=wrap;html=1;" vertex="1" parent="1">
          <mxGeometry x="-510" y="320" width="90" height="50" as="geometry" />
        </mxCell>
        <mxCell id="SJDUsyotow9IORxO9fCn-51" value="CPF" style="ellipse;whiteSpace=wrap;html=1;shadow=0;textShadow=0;" vertex="1" parent="1">
          <mxGeometry x="-690" y="400" width="90" height="60" as="geometry" />
        </mxCell>
      </root>
    </mxGraphModel>
  </diagram>
</mxfile>
